<svg xmlns="http://www.w3.org/2000/svg" viewBox="0 0 512 512" role="img" aria-labelledby="title desc">
  <title id="title">Agentic Digital Twin logo</title>
  <desc id="desc">A glowing cube and robotic arm path representing an agentic digital twin.</desc>
  <defs>
    <linearGradient id="bg" x1="64" y1="36" x2="444" y2="474" gradientUnits="userSpaceOnUse">
      <stop stop-color="#0D1719"/><stop offset="1" stop-color="#05090B"/>
    </linearGradient>
    <linearGradient id="mint" x1="122" y1="120" x2="386" y2="390" gradientUnits="userSpaceOnUse">
      <stop stop-color="#A9FFE5"/><stop offset="1" stop-color="#51D7B0"/>
    </linearGradient>
    <linearGradient id="amber" x1="120" y1="130" x2="390" y2="404" gradientUnits="userSpaceOnUse">
      <stop stop-color="#FFD37A"/><stop offset="1" stop-color="#F38B3D"/>
    </linearGradient>
    <filter id="glow"><feGaussianBlur stdDeviation="6" result="b"/><feMerge><feMergeNode in="b"/><feMergeNode in="SourceGraphic"/></feMerge></filter>
  </defs>
  <rect width="512" height="512" rx="112" fill="url(#bg)"/>
  <path d="M128 198 256 124l128 74v148l-128 74-128-74z" fill="none" stroke="#203235" stroke-width="20"/>
  <path d="M128 198 256 272l128-74M256 272v148" fill="none" stroke="#30494D" stroke-width="14" stroke-linecap="round" stroke-linejoin="round"/>
  <path d="M146 210 256 146l110 64v128l-110 64-110-64z" fill="rgba(124,247,200,.05)" stroke="url(#mint)" stroke-width="10" stroke-linejoin="round" filter="url(#glow)"/>
  <circle cx="178" cy="342" r="28" fill="url(#amber)"/>
  <circle cx="254" cy="276" r="24" fill="#0A1113" stroke="url(#mint)" stroke-width="12"/>
  <circle cx="333" cy="205" r="22" fill="#0A1113" stroke="url(#amber)" stroke-width="10"/>
  <path d="M178 342 C205 306 223 292 254 276 S302 231 333 205" fill="none" stroke="url(#amber)" stroke-width="18" stroke-linecap="round"/>
  <path d="M346 196 390 171M354 214l51 3" stroke="url(#mint)" stroke-width="14" stroke-linecap="round"/>
  <text x="256" y="452" text-anchor="middle" font-family="Inter, Arial, sans-serif" font-size="43" font-weight="800" fill="#EAF8F2">ADT</text>
</svg>
